<!-- icon666.com - MILLIONS vector ICONS FREE --><svg enable-background="new 0 0 48 48" viewBox="0 0 48 48" xmlns="http://www.w3.org/2000/svg"><g id="_x33_8-Eye"><g><path d="m41.8955078 23.5546875c-3.5488281-7.1269531-10.4052734-11.5546875-17.8955078-11.5546875s-14.3466797 4.4277344-17.8955078 11.5546875c-.1396484.2802734-.1396484.6103516 0 .890625 3.5488281 7.1269531 10.4052734 11.5546875 17.8955078 11.5546875s14.3466797-4.4277344 17.8955078-11.5546875c.1396485-.2802734.1396485-.6103516 0-.890625zm-17.8955078 10.4453125c-6.5693359 0-12.609375-3.8183594-15.8759766-10 3.2666016-6.1816406 9.3066407-10 15.8759766-10s12.609375 3.8183594 15.8759766 10c-3.2666016 6.1816406-9.3066407 10-15.8759766 10z"></path><path d="m24 17c-3.859375 0-7 3.140625-7 7s3.140625 7 7 7 7-3.140625 7-7-3.140625-7-7-7zm0 12c-2.7568359 0-5-2.2431641-5-5s2.2431641-5 5-5 5 2.2431641 5 5-2.2431641 5-5 5z"></path><path d="m26 23c-.5527344 0-1 .4472656-1 1 0 .5517578-.4482422 1-1 1-.5527344 0-1 .4472656-1 1s.4472656 1 1 1c1.6542969 0 3-1.3457031 3-3 0-.5527344-.4472656-1-1-1z"></path></g></g></svg>